<svg width="26" height="22" viewBox="0 0 26 22" fill="none" xmlns="http://www.w3.org/2000/svg">
<path fill-rule="evenodd" clip-rule="evenodd" d="M10.2148 7.6659H14.2383V9.7009C14.8179 8.5305 16.3042 7.4789 18.5369 7.4789C22.8172 7.4789 23.8334 9.8087 23.8334 14.0833V22H19.5V15.0568C19.5 12.6225 18.9204 11.2497 17.4449 11.2497C15.3985 11.2497 14.5481 12.7292 14.5481 15.0557V22H10.2148V7.6659ZM2.78419 21.813H7.11752V7.4789H2.78419V21.813ZM7.73827 2.805C7.73843 3.1738 7.6664 3.53896 7.52636 3.87925C7.38632 4.21953 7.18106 4.52816 6.92252 4.7872C6.39862 5.31589 5.68948 5.61182 4.95085 5.61C4.21353 5.6095 3.50602 5.31432 2.98135 4.7883C2.72375 4.52838 2.51919 4.21941 2.37939 3.87908C2.2396 3.53874 2.16731 3.17375 2.16669 2.805C2.16669 2.0603 2.45919 1.3475 2.98244 0.8217C3.50665 0.294974 4.21445 -0.000329132 4.95194 2.75291e-07C5.69077 2.75291e-07 6.39927 0.2959 6.92252 0.8217C7.44469 1.3475 7.73827 2.0603 7.73827 2.805Z" fill="#B3B3B3"/>
</svg>
