<svg width="32" height="19" viewBox="0 0 32 19" fill="none" xmlns="http://www.w3.org/2000/svg">
<g clip-path="url(#clip0_12_102)">
<path d="M9.308 0C10.23 0 11.082 0.0665002 11.864 0.266C12.644 0.399 13.286 0.6764 13.856 1.0089C14.428 1.3433 14.85 1.8183 15.138 2.4282C15.418 3.0362 15.57 3.7791 15.57 4.5885C15.57 5.5309 15.358 6.3403 14.858 6.9483C14.428 7.5563 13.726 8.0997 12.864 8.5006C14.076 8.835 14.998 9.443 15.56 10.2524C16.122 11.0618 16.482 12.0707 16.482 13.2221C16.482 14.1645 16.272 14.9739 15.912 15.6503C15.5529 16.3311 15.014 16.9118 14.348 17.3356C13.708 17.7441 12.926 18.0766 12.074 18.278C11.2394 18.4874 10.3811 18.5997 9.518 18.6124L0 18.6257V0H9.308ZM8.738 7.5582C9.518 7.5582 10.158 7.3587 10.652 7.0167C11.144 6.6747 11.362 6.0724 11.362 5.3314C11.362 4.921 11.292 4.522 11.152 4.2541C11.0005 3.98258 10.7806 3.75087 10.512 3.5796C10.2219 3.42931 9.91174 3.31683 9.59 3.2452C9.238 3.1787 8.878 3.1787 8.456 3.1787H4.34V7.5677C4.34 7.5582 8.74 7.5582 8.74 7.5582H8.738ZM8.948 15.5249C9.378 15.5249 9.8 15.4584 10.16 15.3919C10.512 15.3254 10.872 15.1905 11.152 14.9815C11.432 14.7725 11.652 14.573 11.864 14.2405C12.004 13.9061 12.144 13.4976 12.144 13.0226C12.144 12.0802 11.864 11.4038 11.292 10.9288C10.722 10.5203 9.94 10.3208 9.018 10.3208H4.34V15.5154H8.95V15.5249H8.948ZM22.664 15.4584C23.236 15.9999 24.086 16.2678 25.22 16.2678C26 16.2678 26.712 16.0664 27.284 15.7244C27.854 15.3159 28.204 14.915 28.344 14.5084H31.824C31.252 16.1253 30.4 17.2767 29.268 18.0196C28.136 18.6941 26.782 19.095 25.148 19.095C24.1031 19.0994 23.0668 18.9157 22.094 18.5535C21.2184 18.2443 20.4372 17.7338 19.82 17.0677C19.1617 16.4466 18.6729 15.6822 18.396 14.8409C18.046 13.965 17.896 13.0226 17.896 11.9377C17.896 10.9288 18.036 9.9769 18.396 9.101C18.756 8.227 19.248 7.4822 19.89 6.8077C20.53 6.1997 21.312 5.6563 22.164 5.3219C23.114 4.96257 24.1275 4.77878 25.15 4.7804C26.362 4.7804 27.424 4.9799 28.346 5.4549C29.266 5.9299 29.98 6.4657 30.55 7.2751C31.12 8.0161 31.542 8.892 31.832 9.8363C31.972 10.7787 32.042 11.7287 31.972 12.806H21.672C21.672 13.908 22.092 14.915 22.664 15.4584ZM27.144 8.3676C26.644 7.8926 25.86 7.6247 24.938 7.6247C24.298 7.6247 23.806 7.7577 23.376 7.9591C22.946 8.1586 22.664 8.4341 22.384 8.7001C22.1226 8.96088 21.9486 9.28954 21.884 9.6444C21.812 9.9769 21.744 10.2524 21.744 10.5184H28.136C27.996 9.519 27.636 8.8426 27.142 8.3676H27.144ZM20.89 1.2844H28.846V3.1027H20.89V1.2844Z" fill="#B3B3B3"/>
</g>
<defs>
<clipPath id="clip0_12_102">
<rect width="32" height="19" fill="white"/>
</clipPath>
</defs>
</svg>
