<svg width="41" height="41" viewBox="0 0 41 41" fill="none" xmlns="http://www.w3.org/2000/svg">
<g clip-path="url(#clip0_126_2)">
<path d="M32.3721 19.6108C32.3721 17.4378 31.5905 15.9337 30.9217 14.7626L30.7167 14.4295C29.9044 13.1226 29.1946 11.9746 29.1946 10.637C29.1946 9.02259 30.4194 7.51584 32.1466 7.51584C32.1978 7.51584 32.2465 7.52096 32.2952 7.52352L32.3746 7.53121C29.1361 4.55651 24.8974 2.90824 20.5 2.91359C17.5856 2.91209 14.7166 3.63576 12.1516 5.01937C9.58651 6.40299 7.40604 8.40308 5.80662 10.8394C6.21662 10.8522 6.60868 10.8625 6.93925 10.8625C8.77656 10.8625 11.6235 10.6395 11.6235 10.6395C12.5716 10.5831 12.6844 11.9746 11.7362 12.0873C11.7362 12.0873 10.7856 12.2001 9.72468 12.2539L16.1309 31.3035L19.9747 19.7569L17.2328 12.2513C16.2872 12.195 15.3904 12.0848 15.3904 12.0848C14.4422 12.0284 14.555 10.578 15.5006 10.6344C15.5006 10.6344 18.4064 10.8573 20.1336 10.8573C21.9734 10.8573 24.8229 10.6344 24.8229 10.6344C25.7711 10.578 25.8812 11.972 24.9331 12.0848C24.9331 12.0848 23.9799 12.195 22.9216 12.2513L29.2766 31.1549L31.0293 25.2945L31.1677 24.8511C31.8596 22.6474 32.3695 21.0202 32.3695 19.6083L32.3721 19.6108ZM2.91356 20.5C2.91338 23.8024 3.84292 27.0382 5.5958 29.837C7.34868 32.6358 9.85409 34.8846 12.8253 36.326L4.43312 13.3404C3.42819 15.5933 2.91037 18.0331 2.91356 20.5V20.5Z" fill="#F8F8F8" fill-opacity="0.5"/>
<path d="M15.5313 37.369L20.8101 22.0376L26.2144 36.8488C26.2502 36.9334 26.2912 37.0128 26.3399 37.0897C22.8561 38.3171 19.0739 38.4148 15.5313 37.369V37.369ZM35.9288 12.0618C36.0057 12.623 36.0492 13.2226 36.0492 13.8709C36.0492 15.6544 35.7161 17.6608 34.7116 20.1695L29.3406 35.6983C33.3041 33.3955 36.2113 29.6356 37.4424 25.2202C38.6736 20.8048 38.1314 16.0831 35.9314 12.0618H35.9288Z" fill="#F8F8F8" fill-opacity="0.5"/>
<path fill-rule="evenodd" clip-rule="evenodd" d="M0 20.5C0 9.19681 9.19681 0 20.5 0C31.8006 0 41 9.19681 41 20.5C41 31.8032 31.8006 41 20.5 41C9.19681 41 0 31.8032 0 20.5ZM0.940438 20.5C0.940438 31.2856 9.71444 40.0596 20.5 40.0596C31.283 40.0596 40.057 31.2856 40.057 20.5C40.057 9.71187 31.283 0.940438 20.5 0.940438C9.71187 0.940438 0.940438 9.71187 0.940438 20.5Z" fill="#F8F8F8" fill-opacity="0.5"/>
</g>
<defs>
<clipPath id="clip0_126_2">
<rect width="41" height="41" fill="white"/>
</clipPath>
</defs>
</svg>
