<svg width="48" height="48" viewBox="0 0 48 48" fill="none" xmlns="http://www.w3.org/2000/svg">
<g clip-path="url(#clip0_3_86)">
<path d="M15.3347 0.541748H20.4325V2.67342H17.4663V4.80509H20.4325V6.93676H15.3347V0.541748ZM21.4508 0.541748H26.5506V2.39658H23.5845V2.76636H26.5506V7.0297H21.4508V5.08391H24.417V4.71215H21.4508V0.541748ZM27.571 0.541748H32.6668V2.39658H29.7007V2.76636H32.6668V7.0297H27.571V5.08391H30.5371V4.71215H27.571V0.541748Z" fill="#F8F8F8" fill-opacity="0.5"/>
<path fill-rule="evenodd" clip-rule="evenodd" d="M24.2113 48.0002L10.4801 44.1877L6.43225 9.86938H42.026L37.9802 44.1837L24.2113 48.0002ZM14.4349 25.4041L14.8126 29.6121H29.4001L28.9117 35.0698L24.2173 36.3393H24.2133L19.5268 35.0737L19.2262 31.718H15.0005L15.5897 38.3266L24.2113 40.7193L32.8468 38.3266L33.8988 26.5332L34.0016 25.4041L34.7609 16.8833H13.6776L14.0612 21.0933H30.1496L29.7659 25.4041H14.4349Z" fill="#F8F8F8" fill-opacity="0.5"/>
</g>
<defs>
<clipPath id="clip0_3_86">
<rect width="47.4583" height="47.4583" fill="white" transform="translate(0.499969 0.541748)"/>
</clipPath>
</defs>
</svg>
