<svg width="48" height="48" viewBox="0 0 48 48" fill="none" xmlns="http://www.w3.org/2000/svg">
<g clip-path="url(#clip0_12_8)">
<mask id="mask0_12_8" style="mask-type:alpha" maskUnits="userSpaceOnUse" x="0" y="0" width="48" height="48">
<path d="M0.541656 0.541748H48V48.0001H0.541656V0.541748Z" fill="white"/>
</mask>
<g mask="url(#mask0_12_8)">
<path fill-rule="evenodd" clip-rule="evenodd" d="M17.1817 0.541748C12.343 0.541748 8.45137 4.60141 8.45137 9.57465C8.45137 12.5981 9.89094 15.2835 12.1037 16.9228C10.9633 17.7772 10.0389 18.8869 9.40462 20.163C8.77037 21.439 8.4439 22.8459 8.45137 24.2709C8.45137 27.2964 9.89094 29.9798 12.1037 31.619C10.9633 32.4735 10.0389 33.5832 9.40462 34.8592C8.77037 36.1353 8.4439 37.5422 8.45137 38.9672C8.45137 43.9404 12.343 48.0001 17.1817 48.0001C22.0185 48.0001 25.9121 43.9404 25.9121 38.9672V31.3303C27.4413 32.6054 29.3689 33.3043 31.3599 33.3058C36.1987 33.3038 40.0903 29.2442 40.0903 24.2709C40.0982 22.8459 39.7719 21.4388 39.1376 20.1627C38.5034 18.8865 37.5787 17.7769 36.4379 16.9228C37.5784 16.0684 38.5028 14.9586 39.137 13.6826C39.7713 12.4065 40.0977 10.9996 40.0903 9.57465C40.0903 4.60141 36.1987 0.541748 31.3599 0.541748H17.1817V0.541748ZM11.7319 9.57465C11.7319 6.42856 14.1879 3.90931 17.1817 3.90931H22.6296V15.24H17.1817C14.1879 15.24 11.7319 12.7188 11.7319 9.57465V9.57465ZM31.3599 15.238H25.9121V3.90733H31.3599C34.3557 3.90733 36.8097 6.42856 36.8097 9.57465C36.8097 12.7188 34.3557 15.238 31.3599 15.238ZM11.7339 24.2709C11.7339 21.1268 14.1899 18.6056 17.1837 18.6056H22.6315V29.9363H17.1817C14.1859 29.9363 11.7319 27.415 11.7319 24.2709H11.7339ZM25.9121 24.2709C25.9121 21.1268 28.3681 18.6056 31.3619 18.6056C34.3577 18.6056 36.8117 21.1248 36.8117 24.2709C36.8117 27.415 34.3577 29.9363 31.3619 29.9363C28.3681 29.9363 25.9141 27.417 25.9141 24.2709H25.9121ZM11.7339 38.9672C11.7339 35.8231 14.1899 33.3038 17.1837 33.3038H22.6315V38.9672C22.6315 42.1133 20.1795 44.6325 17.1837 44.6325C14.1899 44.6325 11.7339 42.1133 11.7339 38.9672Z" fill="#F8F8F8" fill-opacity="0.5"/>
</g>
</g>
<defs>
<clipPath id="clip0_12_8">
<rect width="47.4583" height="47.4583" fill="white" transform="translate(0.541656 0.541748)"/>
</clipPath>
</defs>
</svg>
