<svg width="45" height="45" viewBox="0 0 45 45" fill="none" xmlns="http://www.w3.org/2000/svg">
<g clip-path="url(#clip0_3_91)">
<path fill-rule="evenodd" clip-rule="evenodd" d="M22.4583 0.25C10.3263 0.25 0.499985 10.2348 0.499985 22.5625C0.499985 32.4358 6.78556 40.7751 15.514 43.7315C16.6119 43.9267 17.0236 43.2573 17.0236 42.6716C17.0236 42.1417 16.9962 40.3846 16.9962 38.5159C11.4792 39.5479 10.0519 37.1493 9.61269 35.8942C9.36566 35.2527 8.29519 33.2725 7.36196 32.7426C6.59342 32.3242 5.49551 31.2923 7.33452 31.2644C9.06374 31.2365 10.2989 32.882 10.7106 33.5514C12.6869 36.9262 15.8434 35.9779 17.106 35.3922C17.2981 33.9419 17.8745 32.9657 18.5058 32.4079C13.6201 31.8501 8.51478 29.9256 8.51478 21.3911C8.51478 18.9646 9.36566 16.9565 10.7655 15.3946C10.5459 14.8368 9.77738 12.5498 10.9851 9.4818C10.9851 9.4818 12.8241 8.89609 17.0236 11.7688C18.7803 11.2668 20.6468 11.0158 22.5132 11.0158C24.3797 11.0158 26.2461 11.2668 28.0028 11.7688C32.2023 8.8682 34.0413 9.4818 34.0413 9.4818C35.249 12.5498 34.4805 14.8368 34.2609 15.3946C35.6608 16.9565 36.5117 18.9367 36.5117 21.3911C36.5117 29.9535 31.3789 31.8501 26.4932 32.4079C27.2892 33.1052 27.9754 34.4439 27.9754 36.5357C27.9754 39.52 27.9479 41.9186 27.9479 42.6716C27.9479 43.2573 28.3596 43.9546 29.4575 43.7315C33.8166 42.236 37.6044 39.3893 40.2879 35.5918C42.9713 31.7944 44.4153 27.2375 44.4167 22.5625C44.4167 10.2348 34.5903 0.25 22.4583 0.25Z" fill="#F8F8F8" fill-opacity="0.5"/>
</g>
<defs>
<clipPath id="clip0_3_91">
<rect width="43.9167" height="44.625" fill="white" transform="translate(0.499985 0.25)"/>
</clipPath>
</defs>
</svg>
