<svg width="49" height="48" viewBox="0 0 49 48" fill="none" xmlns="http://www.w3.org/2000/svg">
<g clip-path="url(#clip0_3_81)">
<path d="M11.0285 0.541748H13.2001V2.65562H15.1869V0.541748H17.3585V6.94071H15.1869V4.79916H13.2001V6.94071H11.0306V0.541748H11.0285ZM20.2123 2.66353H18.3017V0.541748H24.2965V2.66353H22.3838V6.94071H20.2123V2.66353ZM25.2478 0.541748H27.5116L28.9044 2.79009L30.2952 0.541748H32.559V6.94071H30.3976V3.76891L28.9044 6.04494H28.8663L27.3711 3.77089V6.94071H25.2478V0.541748ZM33.6388 0.541748H35.8123V4.82684H38.8629V6.94269H33.6388V0.541748Z" fill="#F8F8F8" fill-opacity="0.5"/>
<path fill-rule="evenodd" clip-rule="evenodd" d="M10.9603 44.1877L6.85411 9.86938H42.9791L38.8709 44.1837L24.8965 48.0002L10.9603 44.1877ZM19.263 25.4021L18.8737 21.0913H35.2203L35.6016 16.8833H14.2076L15.3595 29.6121H30.1648L29.6691 35.0698L24.9046 36.3393H24.9006L20.1441 35.0737L19.839 31.718H15.5482L16.1463 38.3266L24.8965 40.7193L33.6609 38.3266L34.7286 26.5332L34.8329 25.4041H19.263V25.4021Z" fill="#F8F8F8" fill-opacity="0.5"/>
</g>
<defs>
<clipPath id="clip0_3_81">
<rect width="48.1667" height="47.4583" fill="white" transform="translate(0.833282 0.541748)"/>
</clipPath>
</defs>
</svg>
