<svg width="45" height="51" viewBox="0 0 45 51" fill="none" xmlns="http://www.w3.org/2000/svg">
<g clip-path="url(#clip0_3_79)">
<path d="M0.416656 3.85156V47.8568H44.3333V3.85156H0.416656ZM24.316 38.1717C24.316 42.4543 21.8064 44.409 18.15 44.409C14.8464 44.409 12.9349 42.6999 11.9546 40.6273L15.317 38.5941C15.9639 39.7433 16.5521 40.7157 17.9735 40.7157C19.3263 40.7157 20.189 40.1853 20.189 38.1128V24.0566H24.316V38.1717ZM34.0796 44.409C30.2467 44.409 27.7665 42.582 26.5608 40.1853L29.9232 38.2405C30.8054 39.6844 31.9622 40.755 33.9913 40.755C35.697 40.755 36.795 39.9005 36.795 38.7119C36.795 37.2975 35.6774 36.7965 33.7855 35.9616L32.7562 35.5196C29.7761 34.2525 27.8058 32.6514 27.8058 29.2823C27.8058 26.1783 30.1682 23.8209 33.8443 23.8209C36.4715 23.8209 38.3536 24.7344 39.7064 27.1311L36.4911 29.1938C35.7853 27.9267 35.0206 27.4258 33.8345 27.4258C32.6287 27.4258 31.8641 28.1919 31.8641 29.1938C31.8641 30.4315 32.6287 30.9324 34.4031 31.7084L35.4324 32.1504C38.9418 33.6533 40.9121 35.1954 40.9121 38.653C40.9121 42.3659 37.9909 44.409 34.0796 44.409Z" fill="#F8F8F8" fill-opacity="0.5"/>
</g>
<defs>
<clipPath id="clip0_3_79">
<rect width="43.9167" height="50.2917" fill="white" transform="translate(0.416656 0.708252)"/>
</clipPath>
</defs>
</svg>
