<svg width="41" height="41" viewBox="0 0 41 41" fill="none" xmlns="http://www.w3.org/2000/svg">
<g clip-path="url(#clip0_127_14)">
<path d="M19.1588 0.0320191C19.0708 0.0400261 18.7905 0.0680507 18.5383 0.0880683C12.7212 0.612529 7.2724 3.75129 3.82137 8.57552C1.89968 11.2579 0.670603 14.3005 0.206195 17.5234C0.0420513 18.6484 0.0220337 18.9807 0.0220337 20.506C0.0220337 22.0313 0.0420513 22.3636 0.206195 23.4886C1.31917 31.1794 6.79198 37.641 14.2145 40.0351C15.5437 40.4635 16.9449 40.7558 18.5383 40.9319C19.1588 41 21.8412 41 22.4617 40.9319C25.2122 40.6277 27.5422 39.9471 29.8402 38.774C30.1925 38.5939 30.2606 38.5458 30.2125 38.5058C30.1805 38.4818 28.6792 36.468 26.8776 34.0339L23.6027 29.61L19.4991 23.5367C17.2412 20.1977 15.3835 17.4673 15.3675 17.4673C15.3515 17.4633 15.3355 20.1617 15.3275 23.4566C15.3155 29.2257 15.3115 29.4579 15.2394 29.594C15.1353 29.7902 15.0552 29.8702 14.8871 29.9583C14.759 30.0224 14.6469 30.0344 14.0423 30.0344H13.3497L13.1656 29.9183C13.0455 29.8422 12.9574 29.7421 12.8973 29.626L12.8133 29.4458L12.8213 21.4188L12.8333 13.3877L12.9574 13.2316C13.0214 13.1475 13.1576 13.0394 13.2537 12.9874C13.4178 12.9073 13.4819 12.8993 14.1745 12.8993C14.9912 12.8993 15.1273 12.9313 15.3395 13.1635C15.3995 13.2276 17.6215 16.5745 20.2798 20.6061C22.9382 24.6376 26.5733 30.1425 28.3589 32.8448L31.6018 37.7571L31.7659 37.6491C33.2192 36.7042 34.7565 35.359 35.9736 33.9578C38.5639 30.9832 40.2333 27.356 40.7938 23.4886C40.958 22.3636 40.978 22.0313 40.978 20.506C40.978 18.9807 40.958 18.6484 40.7938 17.5234C39.6809 9.83262 34.2081 3.37095 26.7855 0.976849C25.4764 0.552476 24.0832 0.260219 22.5218 0.0840648C22.1375 0.0440297 19.4911 -9.01383e-06 19.1588 0.0320191V0.0320191ZM27.5422 12.4189C27.7344 12.515 27.8905 12.6991 27.9466 12.8913C27.9786 12.9954 27.9866 15.2214 27.9786 20.2378L27.9666 27.4361L26.6975 25.4904L25.4243 23.5447V18.3121C25.4243 14.9291 25.4404 13.0274 25.4644 12.9353C25.5284 12.7112 25.6686 12.535 25.8607 12.4309C26.0249 12.3468 26.0849 12.3388 26.7135 12.3388C27.306 12.3388 27.4101 12.3468 27.5422 12.4189V12.4189Z" fill="#F8F8F8" fill-opacity="0.5"/>
<path d="M31.4016 37.8453C31.2615 37.9334 31.2174 37.9934 31.3415 37.9254C31.4296 37.8733 31.5737 37.7652 31.5497 37.7612C31.5377 37.7612 31.4696 37.8013 31.4016 37.8453ZM31.1253 38.0255C31.0533 38.0815 31.0533 38.0855 31.1414 38.0415C31.1894 38.0175 31.2294 37.9894 31.2294 37.9814C31.2294 37.9494 31.2094 37.9574 31.1253 38.0255ZM30.9252 38.1456C30.8531 38.2016 30.8531 38.2056 30.9412 38.1616C30.9892 38.1376 31.0293 38.1095 31.0293 38.1015C31.0293 38.0695 31.0092 38.0775 30.9252 38.1456ZM30.725 38.2657C30.6529 38.3217 30.6529 38.3257 30.741 38.2817C30.789 38.2577 30.8291 38.2296 30.8291 38.2216C30.8291 38.1896 30.8091 38.1976 30.725 38.2657ZM30.4207 38.4258C30.2686 38.5059 30.2766 38.5379 30.4287 38.4618C30.4968 38.4258 30.5488 38.3898 30.5488 38.3818C30.5488 38.3538 30.5448 38.3578 30.4207 38.4258Z" fill="#F8F8F8" fill-opacity="0.5"/>
</g>
<defs>
<clipPath id="clip0_127_14">
<rect width="41" height="41" fill="white"/>
</clipPath>
</defs>
</svg>
