<svg width="52" height="46" viewBox="0 0 52 46" fill="none" xmlns="http://www.w3.org/2000/svg">
<g clip-path="url(#clip0_3_77)">
<path d="M32.2307 33.3529C30.9589 35.1747 29.5731 36.9129 28.0815 38.5568C32.0525 42.44 35.748 44.2584 37.7953 43.0645C39.8473 41.8729 40.1299 37.7409 38.7785 32.3361C36.7527 32.7907 34.551 33.1352 32.2307 33.3529ZM29.1194 33.5611C27.3183 33.6362 25.515 33.6362 23.7139 33.5611C24.6093 34.7382 25.5142 35.8293 26.4167 36.8246C27.3192 35.8293 28.2217 34.7382 29.1194 33.5611ZM41.0894 14.674C47.4188 16.5019 51.5513 19.5405 51.5513 23.2083C51.5513 26.8762 47.4188 29.9148 41.0894 31.7427C42.6807 38.1788 42.1368 43.3037 38.9852 45.1364C35.8312 46.9716 31.1524 44.8852 26.4167 40.2795C21.6809 44.8852 17.0022 46.9716 13.8482 45.1364C10.6965 43.3037 10.1503 38.1788 11.7439 31.7427C5.41453 29.9148 1.28203 26.8762 1.28203 23.2083C1.28203 19.5405 5.41453 16.5019 11.7439 14.674C10.1527 8.23788 10.6965 3.11294 13.8482 1.28022C17.0022 -0.5549 21.6809 1.53144 26.4167 6.13718C31.1524 1.53144 35.8312 -0.5549 38.9852 1.28022C42.1368 3.11294 42.683 8.23788 41.0894 14.674ZM38.7785 14.0806C40.1323 8.67333 39.8473 4.54371 37.7977 3.3522C35.748 2.1583 32.0525 3.97667 28.0839 7.85985C29.5738 9.50458 30.9588 11.2427 32.2307 13.0637C34.5534 13.2791 36.7527 13.6236 38.7785 14.0806ZM14.0548 32.3361C12.701 37.7433 12.986 41.8729 15.0357 43.0645C17.0853 44.2584 20.7808 42.44 24.7494 38.5568C23.2587 36.9128 21.8736 35.1746 20.6027 33.3529C18.4008 33.1546 16.2137 32.815 14.0548 32.3361ZM23.7139 12.8556C25.515 12.7805 27.3183 12.7805 29.1194 12.8556C28.2656 11.7298 27.3639 10.6417 26.4167 9.59448C25.5142 10.5898 24.6117 11.6808 23.7139 12.858V12.8556ZM20.6027 13.0637C21.8752 11.2419 23.2618 9.50371 24.7542 7.85985C20.7808 3.97667 17.0829 2.1583 15.038 3.3522C12.986 4.54371 12.7034 8.67572 14.0548 14.0806C16.0807 13.626 18.2823 13.2815 20.6027 13.0637ZM30.9149 31.056C32.6055 28.5566 34.1083 25.9334 35.4108 23.2083C34.1083 20.4832 32.6055 17.86 30.9149 15.3606C27.9203 15.1348 24.913 15.1348 21.9184 15.3606C20.2278 17.86 18.725 20.4832 17.4225 23.2083C18.725 25.9334 20.2278 28.5566 21.9184 31.056C24.913 31.2819 27.9203 31.2819 30.9149 31.056ZM33.9644 30.7426C35.425 30.5512 36.8144 30.3048 38.1207 30.0153C37.6935 28.6653 37.2086 27.3345 36.6672 26.0268C35.8311 27.6348 34.9295 29.2073 33.9644 30.7402V30.7426ZM18.8689 15.6717C17.4083 15.8631 16.0189 16.1095 14.7127 16.399C15.1164 17.6814 15.6009 19.0165 16.1662 20.3875C17.0022 18.7795 17.9039 17.207 18.8689 15.6741V15.6717ZM14.7127 30.0129C16.0189 30.3024 17.4083 30.5464 18.8689 30.7402C17.9039 29.2073 17.0022 27.6348 16.1662 26.0268C15.6245 27.3336 15.1396 28.6636 14.7127 30.0129ZM12.3899 29.4267C13.0098 27.4313 13.8149 25.3401 14.7887 23.2059C13.8593 21.1856 13.0581 19.1078 12.3899 16.9852C7.06516 18.5093 3.65703 20.8229 3.65703 23.2059C3.65703 25.589 7.06516 27.9026 12.3899 29.4267ZM38.1207 16.399C36.7461 16.0971 35.3595 15.8544 33.9644 15.6717C34.9295 17.2046 35.8311 18.7771 36.6672 20.3851C37.2324 19.0165 37.7169 17.6814 38.1207 16.399ZM40.4434 16.9852C39.8235 18.9806 39.0184 21.0717 38.0447 23.2059C39.0184 25.3401 39.8235 27.4313 40.4434 29.4267C45.7682 27.9026 49.1763 25.589 49.1763 23.2059C49.1763 20.8229 45.7682 18.5093 40.4434 16.9852ZM26.4167 27.7064C25.8303 27.7064 25.2497 27.5901 24.708 27.364C24.1663 27.138 23.674 26.8066 23.2594 26.3889C22.8448 25.9713 22.5159 25.4754 22.2915 24.9297C22.0671 24.3839 21.9517 23.799 21.9517 23.2083C21.9517 22.6176 22.0671 22.0327 22.2915 21.487C22.5159 20.9413 22.8448 20.4454 23.2594 20.0277C23.674 19.61 24.1663 19.2787 24.708 19.0526C25.2497 18.8266 25.8303 18.7103 26.4167 18.7103C27.6008 18.7103 28.7365 19.1842 29.5739 20.0277C30.4112 20.8713 30.8817 22.0154 30.8817 23.2083C30.8817 24.4013 30.4112 25.5454 29.5739 26.3889C28.7365 27.2325 27.6008 27.7064 26.4167 27.7064Z" fill="#F8F8F8" fill-opacity="0.5"/>
</g>
<defs>
<clipPath id="clip0_3_77">
<rect width="51" height="45.3333" fill="white" transform="translate(0.916656 0.541748)"/>
</clipPath>
</defs>
</svg>
