<svg width="56" height="41" viewBox="0 0 56 41" fill="none" xmlns="http://www.w3.org/2000/svg">
<g clip-path="url(#clip0_127_9)">
<path d="M28.0023 3.41675C20.5357 3.41675 15.869 7.21304 14.0023 14.8056C16.8023 11.0093 20.069 9.58573 23.8023 10.5348C25.9327 11.0758 27.454 12.6465 29.141 14.388C31.8873 17.221 35.063 20.5001 42.0023 20.5001C49.469 20.5001 54.1357 16.7038 56.0023 9.11119C53.2023 12.9075 49.9357 14.3311 46.2023 13.382C44.072 12.8411 42.5507 11.2703 40.8637 9.52878C38.1197 6.6958 34.944 3.41675 28.0023 3.41675ZM14.0023 20.5001C6.53565 20.5001 1.86899 24.2964 0.00231934 31.889C2.80232 28.0927 6.06899 26.6691 9.80232 27.6181C11.9327 28.1591 13.454 29.7298 15.141 31.4714C17.8873 34.3044 21.063 37.5834 28.0023 37.5834C35.469 37.5834 40.1357 33.7871 42.0023 26.1945C39.2023 29.9908 35.9356 31.4144 32.2023 30.4654C30.072 29.9244 28.5506 28.3537 26.8636 26.6121C24.1196 23.7791 20.944 20.5001 14.0023 20.5001V20.5001Z" fill="#F8F8F8" fill-opacity="0.5"/>
</g>
<defs>
<clipPath id="clip0_127_9">
<rect width="56" height="41" fill="white"/>
</clipPath>
</defs>
</svg>
